<?xml version="1.0" encoding="utf-8"?>
<!-- Generator: Adobe Illustrator 16.0.0, SVG Export Plug-In . SVG Version: 6.00 Build 0)  -->
<!DOCTYPE svg PUBLIC "-//W3C//DTD SVG 1.1//EN" "http://www.w3.org/Graphics/SVG/1.1/DTD/svg11.dtd">
<svg version="1.1" id="Layer_1" xmlns="http://www.w3.org/2000/svg" xmlns:xlink="http://www.w3.org/1999/xlink" x="0px" y="0px"
	 width="150px" height="56.465px" viewBox="0 0 150 56.465" enable-background="new 0 0 150 56.465" xml:space="preserve">
<g id="Capa_1">
</g>
<g id="Layer_1_1_">
	<g>
		<path fill="#FFFFFF" d="M16.434,41.757c0-0.482,0.373-0.854,0.834-0.854c0.482,0,0.854,0.373,0.854,0.854v1.535
			c0.923-1.359,2.261-2.521,4.345-2.521c2.721,0,5.42,2.149,5.42,5.879v0.043c0,3.708-2.676,5.902-5.42,5.902
			c-2.105,0-3.465-1.14-4.345-2.413v4.938c0,0.482-0.351,0.854-0.834,0.854c-0.481,0-0.854-0.373-0.854-0.854V41.757z
			 M26.154,46.716v-0.043c0-2.678-1.844-4.389-3.993-4.389c-2.106,0-4.104,1.777-4.104,4.366v0.043c0,2.633,1.998,4.39,4.104,4.39
			C24.355,51.083,26.154,49.458,26.154,46.716z"/>
		<path fill="#FFFFFF" d="M30.895,41.757c0-0.461,0.373-0.854,0.834-0.854c0.482,0,0.854,0.373,0.854,0.854v2.129
			c0.835-1.887,2.479-3.027,3.906-3.027c0.504,0,0.833,0.371,0.833,0.854c0,0.461-0.307,0.791-0.745,0.855
			c-2.194,0.264-3.993,1.909-3.993,5.18v3.86c0,0.461-0.351,0.854-0.834,0.854c-0.482,0-0.855-0.373-0.855-0.854V41.757
			L30.895,41.757z"/>
		<path fill="#FFFFFF" d="M38.268,46.738v-0.044c0-3.204,2.502-5.922,5.926-5.922c3.4,0,5.9,2.675,5.9,5.879v0.043
			c0,3.203-2.521,5.924-5.947,5.924C40.748,52.618,38.268,49.941,38.268,46.738z M48.361,46.738v-0.044
			c0-2.434-1.821-4.431-4.215-4.431c-2.457,0-4.145,1.997-4.145,4.387v0.043c0,2.437,1.799,4.41,4.19,4.41
			C46.648,51.104,48.361,49.13,48.361,46.738z"/>
		<path fill="#FFFFFF" d="M53.586,41.757c0-0.461,0.373-0.854,0.834-0.854c0.482,0,0.854,0.373,0.854,0.854v1.164
			c0.746-1.119,1.756-2.149,3.666-2.149c1.843,0,3.025,0.985,3.641,2.258c0.812-1.25,2.02-2.258,3.994-2.258
			c2.609,0,4.212,1.754,4.212,4.563v6.273c0,0.482-0.373,0.855-0.833,0.855c-0.482,0-0.855-0.373-0.855-0.855v-5.879
			c0-2.195-1.098-3.424-2.939-3.424c-1.711,0-3.117,1.273-3.117,3.511v5.792c0,0.482-0.373,0.855-0.854,0.855
			c-0.461,0-0.834-0.373-0.834-0.855v-5.924c0-2.128-1.119-3.38-2.918-3.38s-3.16,1.493-3.16,3.575v5.729
			c0,0.482-0.35,0.855-0.834,0.855c-0.481,0-0.855-0.373-0.855-0.855V41.757L53.586,41.757z"/>
		<path fill="#FFFFFF" d="M79.631,52.618c-3.115,0-5.66-2.392-5.66-5.902v-0.043c0-3.271,2.305-5.901,5.441-5.901
			c3.355,0,5.266,2.743,5.266,5.747c0,0.461-0.371,0.79-0.789,0.79h-8.205c0.24,2.458,1.973,3.84,3.992,3.84
			c1.404,0,2.436-0.547,3.27-1.315c0.131-0.109,0.285-0.197,0.482-0.197c0.418,0,0.746,0.328,0.746,0.724
			c0,0.197-0.088,0.396-0.266,0.548C82.836,51.939,81.562,52.618,79.631,52.618z M82.986,46.059
			c-0.172-2.063-1.357-3.861-3.619-3.861c-1.973,0-3.467,1.646-3.686,3.861H82.986z"/>
		<path fill="#FFFFFF" d="M88.256,49.348v-6.845h-0.922c-0.395,0-0.746-0.351-0.746-0.746c0-0.416,0.352-0.746,0.746-0.746h0.922
			v-2.676c0-0.461,0.352-0.855,0.834-0.855c0.459,0,0.855,0.395,0.855,0.855v2.676h2.939c0.418,0,0.768,0.352,0.768,0.746
			c0,0.418-0.35,0.746-0.768,0.746h-2.939v6.627c0,1.384,0.768,1.887,1.908,1.887c0.592,0,0.898-0.154,1.031-0.154
			c0.395,0,0.725,0.331,0.725,0.725c0,0.308-0.195,0.549-0.482,0.66c-0.482,0.195-1.01,0.307-1.668,0.307
			C89.639,52.552,88.256,51.652,88.256,49.348z"/>
		<path fill="#FFFFFF" d="M96.242,41.757c0-0.461,0.375-0.854,0.836-0.854c0.48,0,0.855,0.373,0.855,0.854v9.852
			c0,0.482-0.352,0.855-0.834,0.855s-0.857-0.373-0.857-0.855V41.757z"/>
		<path fill="#FFFFFF" d="M112.02,51.608c0,0.461-0.35,0.855-0.834,0.855c-0.461,0-0.834-0.373-0.834-0.855V50.38
			c-0.768,1.229-1.932,2.217-3.883,2.217c-2.742,0-4.346-1.842-4.346-4.542v-6.296c0-0.483,0.352-0.855,0.834-0.855
			c0.461,0,0.855,0.373,0.855,0.855v5.881c0,2.105,1.143,3.421,3.137,3.421c1.934,0,3.402-1.425,3.402-3.554v-5.748
			c0-0.483,0.35-0.855,0.834-0.855c0.459,0,0.832,0.373,0.832,0.855v9.85H112.02z"/>
		<path fill="#FFFFFF" d="M116.365,41.757c0-0.461,0.373-0.854,0.834-0.854c0.482,0,0.855,0.373,0.855,0.854v1.164
			c0.746-1.119,1.754-2.149,3.664-2.149c1.844,0,3.027,0.985,3.643,2.258c0.812-1.25,2.021-2.258,3.994-2.258
			c2.609,0,4.211,1.754,4.211,4.563v6.273c0,0.482-0.373,0.855-0.832,0.855c-0.482,0-0.855-0.373-0.855-0.855v-5.879
			c0-2.195-1.098-3.424-2.939-3.424c-1.713,0-3.115,1.273-3.115,3.511v5.792c0,0.482-0.371,0.855-0.855,0.855
			c-0.461,0-0.832-0.373-0.832-0.855v-5.924c0-2.128-1.121-3.38-2.92-3.38c-1.801,0-3.16,1.493-3.16,3.575v5.729
			c0,0.482-0.352,0.855-0.834,0.855s-0.855-0.373-0.855-0.855v-9.852H116.365z"/>
		<g>
			<path fill="#FFFFFF" d="M111.854,16.887l-0.486-0.49c-1.162,1.15-2.529,1.956-3.98,2.428c-0.619-0.557-1.303-1.049-2.049-1.458
				c-1.686-0.928-3.547-1.375-5.422-1.327c2.289-1.404,3.932-3.591,4.668-6.1c1.375-0.302,2.809-0.298,4.215,0.049l0.166-0.672
				c-1.396-0.344-2.818-0.38-4.191-0.128c0.348-1.604,0.33-3.315-0.119-5.021l-0.668,0.176c0.447,1.705,0.436,3.419,0.037,5.01
				c-0.914,0.243-1.801,0.616-2.635,1.122c-1.535,0.93-2.758,2.231-3.594,3.767c-0.037-2.869-1.223-5.558-3.229-7.506
				c0.418-1.619,1.234-3.158,2.475-4.447l-0.5-0.479c-1.234,1.285-2.08,2.802-2.551,4.403c-1.158-0.973-2.545-1.717-4.111-2.145
				l-0.182,0.667c1.582,0.433,2.969,1.21,4.102,2.229c-0.584,2.703-0.113,5.586,1.395,7.994c-2.482-1.373-5.367-1.685-8.027-0.939
				c-1.195-1.188-2.082-2.66-2.562-4.322L83.938,9.89c0.482,1.659,1.336,3.143,2.486,4.364c-1.436,0.517-2.785,1.35-3.947,2.5
				l0.486,0.492c1.172-1.162,2.553-1.972,4.014-2.442c0.629,0.577,1.332,1.085,2.104,1.508c1.605,0.884,3.373,1.333,5.16,1.333
				c0.09,0,0.18-0.007,0.27-0.01c-2.41,1.475-4.104,3.818-4.779,6.49c-1.643,0.459-3.385,0.492-5.09,0.073l-0.164,0.673
				c0.857,0.211,1.727,0.314,2.586,0.314c0.846,0,1.686-0.105,2.506-0.307c-0.266,1.49-0.219,3.062,0.195,4.629l0.668-0.176
				c-0.416-1.584-0.432-3.172-0.117-4.665c0.793-0.254,1.562-0.599,2.293-1.041c1.705-1.032,3.061-2.483,3.957-4.209
				c0.098,2.727,1.309,5.267,3.293,7.057c-0.375,1.777-1.221,3.476-2.566,4.881l0.498,0.479c1.35-1.405,2.234-3.086,2.67-4.854
				c1.006,0.771,2.174,1.363,3.473,1.719l0.182-0.667c-1.324-0.362-2.498-0.997-3.49-1.819c0.438-2.575-0.064-5.274-1.494-7.545
				c1.609,0.891,3.387,1.347,5.168,1.347c0.979,0,1.955-0.138,2.904-0.404c1.219,1.194,2.127,2.685,2.613,4.369l0.664-0.192
				c-0.488-1.683-1.359-3.185-2.535-4.416C109.367,18.853,110.705,18.026,111.854,16.887z M101.748,11.067
				c0.648-0.393,1.338-0.691,2.041-0.914c-0.938,2.762-3.072,5.057-5.98,6.146c-0.045,0.01-0.094,0.019-0.139,0.029
				C98.336,14.127,99.764,12.269,101.748,11.067z M94.391,7.543c2.096,2.225,3.115,5.356,2.564,8.562
				C94.746,13.739,93.877,10.551,94.391,7.543z M89.412,15.706c-0.586-0.324-1.135-0.699-1.637-1.119
				c2.984-0.693,6.205,0.004,8.703,2.103c-0.018,0.008-0.037,0.015-0.057,0.022C94.037,17.241,91.572,16.893,89.412,15.706z
				 M92.252,23.038c-0.559,0.336-1.137,0.614-1.734,0.836c0.877-2.922,3.07-5.369,6.107-6.5c0.008-0.002,0.016-0.004,0.021-0.007
				C95.926,19.741,94.389,21.745,92.252,23.038z M99.996,25.645c-2.07-2.062-3.111-5.045-2.613-8.096
				C99.477,19.793,100.354,22.775,99.996,25.645z M97.906,17.002c0.035-0.013,0.066-0.025,0.102-0.037
				c2.381-0.526,4.842-0.178,6.998,1.008c0.564,0.311,1.09,0.673,1.576,1.074C103.613,19.745,100.402,19.066,97.906,17.002z"/>
			<path fill="#FFFFFF" d="M89.104,6.911c-1.385-0.379-2.201-1.81-1.824-3.193c0.379-1.383,1.811-2.201,3.195-1.823
				c1.385,0.38,2.199,1.81,1.822,3.194C91.918,6.474,90.486,7.29,89.104,6.911z"/>
			<path fill="#FFFFFF" d="M84.934,23.02c-0.838-0.203-1.682,0.309-1.889,1.145s0.305,1.681,1.143,1.887
				c0.836,0.205,1.684-0.307,1.887-1.144C86.279,24.071,85.77,23.227,84.934,23.02z"/>
			<path fill="#FFFFFF" d="M83.453,17.741c-0.406,0.405-1.066,0.399-1.471-0.008s-0.4-1.064,0.006-1.468
				c0.41-0.406,1.068-0.402,1.473,0.006C83.863,16.679,83.859,17.336,83.453,17.741z"/>
			<path fill="#FFFFFF" d="M96.229,30.337c-0.697,0.726-0.672,1.877,0.053,2.571c0.727,0.696,1.877,0.673,2.572-0.054
				c0.697-0.725,0.672-1.876-0.053-2.573C98.076,29.587,96.922,29.611,96.229,30.337z"/>
			<path fill="#FFFFFF" d="M92.613,28.763c0.365,1.387-0.467,2.81-1.854,3.175c-1.391,0.364-2.812-0.467-3.174-1.856
				c-0.367-1.387,0.465-2.81,1.852-3.173C90.826,26.543,92.25,27.372,92.613,28.763z"/>
			<path fill="#FFFFFF" d="M108.4,24.39c0.279,0.964,1.289,1.521,2.252,1.239c0.969-0.278,1.523-1.289,1.242-2.254
				c-0.281-0.966-1.289-1.521-2.256-1.24C108.676,22.417,108.121,23.426,108.4,24.39z"/>
			<path fill="#FFFFFF" d="M104.297,27.362c0.555,0.15,0.879,0.725,0.729,1.277c-0.15,0.555-0.725,0.879-1.275,0.729
				c-0.557-0.15-0.885-0.722-0.732-1.278C103.17,27.538,103.742,27.213,104.297,27.362z"/>
			<path fill="#FFFFFF" d="M108.51,11.168c0.834,0.207,1.682-0.305,1.887-1.142s-0.307-1.682-1.143-1.888
				c-0.836-0.207-1.684,0.307-1.889,1.141C107.16,10.117,107.674,10.961,108.51,11.168z"/>
			<path fill="#FFFFFF" d="M109.781,14.795c1.02-1.01,2.664-1.002,3.678,0.019c1.01,1.021,1.002,2.667-0.02,3.676
				c-1.02,1.009-2.666,1.003-3.676-0.016C108.752,17.451,108.762,15.804,109.781,14.795z"/>
			<path fill="#FFFFFF" d="M97.916,3.129c0.596-0.621,0.574-1.609-0.045-2.205c-0.621-0.596-1.611-0.575-2.207,0.045
				c-0.596,0.621-0.576,1.609,0.047,2.205C96.332,3.772,97.318,3.752,97.916,3.129z"/>
			<path fill="#FFFFFF" d="M103.312,4.523c-0.145-0.558,0.188-1.126,0.742-1.271c0.557-0.146,1.125,0.186,1.27,0.74
				c0.146,0.555-0.186,1.124-0.74,1.27S103.461,5.079,103.312,4.523z"/>
			<path fill="#FFFFFF" d="M86.02,9.288c-0.281-0.966-1.291-1.521-2.256-1.24c-0.965,0.279-1.521,1.289-1.24,2.256
				c0.279,0.965,1.289,1.521,2.256,1.238C85.742,11.264,86.299,10.252,86.02,9.288z"/>
		</g>
	</g>
</g>
</svg>
