<?xml version="1.0" encoding="utf-8"?>
<!-- Generator: Adobe Illustrator 16.0.0, SVG Export Plug-In . SVG Version: 6.00 Build 0)  -->
<!DOCTYPE svg PUBLIC "-//W3C//DTD SVG 1.1//EN" "http://www.w3.org/Graphics/SVG/1.1/DTD/svg11.dtd">
<svg version="1.1" id="Layer_1" xmlns="http://www.w3.org/2000/svg" xmlns:xlink="http://www.w3.org/1999/xlink" x="0px" y="0px"
	 width="124.666px" height="56.465px" viewBox="0 0 124.666 56.465" enable-background="new 0 0 124.666 56.465"
	 xml:space="preserve">
<g id="Capa_1">
</g>
<g id="Layer_1_2_" display="none">
	<g display="inline">
		<path fill="#BF4F58" d="M5.006,41.768c0-0.483,0.373-0.855,0.834-0.855c0.481,0,0.854,0.372,0.854,0.855v1.535
			c0.922-1.361,2.261-2.521,4.345-2.521c2.721,0,5.42,2.148,5.42,5.879v0.043c0,3.709-2.677,5.902-5.42,5.902
			c-2.106,0-3.466-1.141-4.345-2.413v4.937c0,0.483-0.35,0.855-0.834,0.855c-0.481,0-0.854-0.373-0.854-0.855V41.768z
			 M14.726,46.725v-0.043c0-2.677-1.843-4.388-3.993-4.388c-2.106,0-4.104,1.776-4.104,4.366v0.043c0,2.633,1.997,4.389,4.104,4.389
			C12.927,51.092,14.726,49.467,14.726,46.725z"/>
		<path fill="#BF4F58" d="M19.467,41.768c0-0.462,0.372-0.855,0.834-0.855c0.481,0,0.854,0.372,0.854,0.855v2.129
			c0.834-1.888,2.48-3.028,3.906-3.028c0.504,0,0.833,0.371,0.833,0.854c0,0.461-0.307,0.79-0.745,0.855
			c-2.195,0.264-3.994,1.908-3.994,5.179v3.861c0,0.461-0.35,0.855-0.833,0.855s-0.855-0.372-0.855-0.855V41.768z"/>
		<path fill="#BF4F58" d="M26.839,46.748v-0.045c0-3.203,2.502-5.922,5.926-5.922c3.4,0,5.901,2.675,5.901,5.879v0.043
			c0,3.203-2.522,5.924-5.946,5.924C29.319,52.627,26.839,49.951,26.839,46.748z M36.933,46.748v-0.045
			c0-2.434-1.82-4.431-4.213-4.431c-2.457,0-4.146,1.997-4.146,4.388v0.043c0,2.436,1.799,4.41,4.191,4.41
			C35.221,51.113,36.933,49.139,36.933,46.748z"/>
		<path fill="#BF4F58" d="M42.156,41.768c0-0.462,0.374-0.855,0.835-0.855c0.482,0,0.854,0.372,0.854,0.855v1.162
			c0.745-1.118,1.755-2.148,3.665-2.148c1.843,0,3.026,0.986,3.641,2.258c0.812-1.25,2.02-2.258,3.994-2.258
			c2.61,0,4.212,1.754,4.212,4.562v6.274c0,0.483-0.372,0.856-0.833,0.856c-0.483,0-0.856-0.373-0.856-0.856v-5.88
			c0-2.195-1.097-3.424-2.938-3.424c-1.712,0-3.117,1.273-3.117,3.512v5.792c0,0.483-0.373,0.855-0.854,0.855
			c-0.462,0-0.835-0.372-0.835-0.855v-5.924c0-2.128-1.118-3.38-2.917-3.38c-1.8,0-3.16,1.493-3.16,3.576v5.728
			c0,0.483-0.351,0.855-0.834,0.855c-0.482,0-0.856-0.372-0.856-0.855L42.156,41.768L42.156,41.768z"/>
		<path fill="#BF4F58" d="M68.202,52.627c-3.115,0-5.66-2.391-5.66-5.902v-0.043c0-3.271,2.305-5.902,5.441-5.902
			c3.356,0,5.266,2.743,5.266,5.748c0,0.461-0.372,0.789-0.79,0.789h-8.205c0.241,2.458,1.974,3.84,3.993,3.84
			c1.403,0,2.436-0.547,3.27-1.316c0.131-0.108,0.285-0.196,0.482-0.196c0.418,0,0.745,0.329,0.745,0.724
			c0,0.197-0.088,0.396-0.264,0.549C71.406,51.948,70.134,52.627,68.202,52.627z M71.559,46.068
			c-0.173-2.063-1.359-3.861-3.619-3.861c-1.974,0-3.467,1.645-3.686,3.861H71.559z"/>
		<path fill="#BF4F58" d="M76.827,49.357v-6.845h-0.922c-0.394,0-0.746-0.351-0.746-0.745c0-0.418,0.353-0.747,0.746-0.747h0.922
			v-2.677c0-0.46,0.352-0.855,0.834-0.855c0.461,0,0.855,0.396,0.855,0.855v2.677h2.94c0.417,0,0.768,0.352,0.768,0.747
			c0,0.416-0.351,0.745-0.768,0.745h-2.94v6.626c0,1.384,0.769,1.887,1.91,1.887c0.592,0,0.898-0.154,1.03-0.154
			c0.396,0,0.724,0.331,0.724,0.726c0,0.308-0.195,0.548-0.482,0.659c-0.482,0.195-1.008,0.307-1.666,0.307
			C78.211,52.562,76.827,51.662,76.827,49.357z"/>
		<path fill="#BF4F58" d="M84.814,41.768c0-0.462,0.374-0.855,0.835-0.855c0.481,0,0.855,0.372,0.855,0.855v9.851
			c0,0.483-0.352,0.856-0.834,0.856s-0.856-0.373-0.856-0.856V41.768z"/>
		<path fill="#BF4F58" d="M100.591,51.618c0,0.461-0.35,0.856-0.833,0.856c-0.461,0-0.834-0.373-0.834-0.856V50.39
			c-0.768,1.229-1.932,2.216-3.884,2.216c-2.742,0-4.345-1.842-4.345-4.542v-6.296c0-0.483,0.352-0.855,0.834-0.855
			c0.46,0,0.855,0.372,0.855,0.855v5.881c0,2.105,1.142,3.421,3.138,3.421c1.932,0,3.401-1.425,3.401-3.554v-5.748
			c0-0.483,0.35-0.855,0.834-0.855c0.46,0,0.833,0.372,0.833,0.855V51.618L100.591,51.618z"/>
		<path fill="#BF4F58" d="M104.937,41.768c0-0.462,0.373-0.855,0.835-0.855c0.481,0,0.854,0.372,0.854,0.855v1.162
			c0.747-1.118,1.755-2.148,3.665-2.148c1.843,0,3.027,0.986,3.643,2.258c0.812-1.25,2.02-2.258,3.993-2.258
			c2.61,0,4.212,1.754,4.212,4.562v6.274c0,0.483-0.373,0.856-0.832,0.856c-0.483,0-0.856-0.373-0.856-0.856v-5.88
			c0-2.195-1.097-3.424-2.94-3.424c-1.712,0-3.114,1.273-3.114,3.512v5.792c0,0.483-0.373,0.855-0.857,0.855
			c-0.461,0-0.832-0.372-0.832-0.855v-5.924c0-2.128-1.121-3.38-2.919-3.38c-1.801,0-3.16,1.493-3.16,3.576v5.728
			c0,0.483-0.352,0.855-0.835,0.855c-0.482,0-0.855-0.372-0.855-0.855V41.768L104.937,41.768z"/>
		<g>
			<path fill="#BF4F58" d="M100.426,16.897l-0.486-0.49c-1.163,1.151-2.531,1.956-3.982,2.428c-0.618-0.557-1.302-1.049-2.048-1.458
				c-1.686-0.928-3.547-1.375-5.423-1.328c2.289-1.404,3.933-3.59,4.668-6.099c1.375-0.302,2.809-0.298,4.216,0.049l0.166-0.672
				c-1.396-0.344-2.819-0.38-4.192-0.128c0.347-1.605,0.33-3.316-0.119-5.02l-0.668,0.175c0.447,1.706,0.435,3.419,0.038,5.01
				c-0.915,0.243-1.802,0.616-2.635,1.122c-1.536,0.93-2.758,2.231-3.595,3.767c-0.036-2.87-1.222-5.558-3.227-7.506
				c0.417-1.619,1.233-3.158,2.473-4.448l-0.499-0.479c-1.233,1.285-2.08,2.802-2.549,4.404c-1.16-0.973-2.545-1.717-4.112-2.145
				L78.27,4.746c1.582,0.432,2.968,1.21,4.101,2.23c-0.583,2.703-0.113,5.585,1.395,7.993c-2.482-1.373-5.365-1.684-8.027-0.939
				c-1.195-1.187-2.08-2.66-2.562-4.322l-0.666,0.192c0.482,1.659,1.336,3.143,2.487,4.365c-1.435,0.516-2.786,1.349-3.948,2.5
				l0.488,0.491c1.172-1.161,2.553-1.971,4.014-2.442c0.629,0.578,1.332,1.085,2.102,1.508c1.607,0.884,3.374,1.333,5.16,1.333
				c0.09,0,0.18-0.007,0.27-0.009c-2.41,1.474-4.104,3.817-4.779,6.489c-1.643,0.459-3.385,0.493-5.09,0.074l-0.164,0.672
				c0.857,0.211,1.726,0.315,2.586,0.315c0.846,0,1.686-0.106,2.506-0.306c-0.265,1.489-0.218,3.062,0.195,4.629l0.669-0.177
				c-0.416-1.583-0.433-3.171-0.116-4.663c0.793-0.255,1.562-0.599,2.293-1.041c1.704-1.033,3.059-2.484,3.957-4.209
				c0.097,2.726,1.308,5.266,3.292,7.056c-0.374,1.777-1.22,3.477-2.567,4.881l0.499,0.479c1.349-1.406,2.234-3.087,2.67-4.854
				c1.005,0.771,2.174,1.364,3.473,1.719l0.181-0.667c-1.324-0.362-2.498-0.997-3.49-1.82c0.438-2.575-0.064-5.274-1.495-7.544
				c1.61,0.89,3.388,1.346,5.169,1.346c0.978,0,1.954-0.137,2.903-0.404c1.22,1.194,2.127,2.684,2.615,4.369l0.663-0.193
				c-0.487-1.682-1.359-3.184-2.535-4.416C97.938,18.863,99.275,18.036,100.426,16.897z M90.319,11.077
				c0.649-0.393,1.337-0.691,2.041-0.914c-0.938,2.761-3.073,5.057-5.98,6.146c-0.046,0.01-0.094,0.019-0.14,0.03
				C86.907,14.137,88.335,12.278,90.319,11.077z M82.962,7.552c2.096,2.225,3.114,5.357,2.564,8.562
				C83.317,13.749,82.447,10.562,82.962,7.552z M77.983,15.715c-0.586-0.323-1.133-0.698-1.635-1.119
				c2.984-0.693,6.204,0.005,8.702,2.103c-0.019,0.008-0.038,0.015-0.058,0.022C82.608,17.251,80.145,16.903,77.983,15.715z
				 M80.823,23.047c-0.557,0.336-1.137,0.614-1.733,0.835c0.877-2.921,3.069-5.368,6.106-6.5c0.008-0.002,0.017-0.004,0.023-0.006
				C84.498,19.751,82.96,21.753,80.823,23.047z M88.567,25.655c-2.07-2.062-3.112-5.045-2.613-8.095
				C88.049,19.804,88.925,22.785,88.567,25.655z M86.479,17.011c0.034-0.012,0.066-0.025,0.1-0.037
				c2.382-0.526,4.842-0.177,6.998,1.008c0.565,0.311,1.091,0.673,1.577,1.075C92.186,19.754,88.975,19.076,86.479,17.011z"/>
			<path fill="#BF4F58" d="M77.675,6.92c-1.385-0.379-2.201-1.81-1.824-3.194c0.38-1.383,1.811-2.201,3.195-1.823
				c1.385,0.38,2.199,1.81,1.821,3.195C80.488,6.483,79.059,7.299,77.675,6.92z"/>
			<path fill="#BF4F58" d="M73.506,23.029c-0.839-0.203-1.683,0.308-1.889,1.145c-0.206,0.835,0.305,1.68,1.142,1.886
				s1.684-0.306,1.888-1.143S74.341,23.236,73.506,23.029z"/>
			<path fill="#BF4F58" d="M72.024,17.75c-0.407,0.405-1.067,0.399-1.471-0.008c-0.404-0.407-0.4-1.065,0.006-1.468
				c0.409-0.406,1.068-0.402,1.472,0.006C72.436,16.689,72.433,17.347,72.024,17.75z"/>
			<path fill="#BF4F58" d="M84.8,30.346c-0.696,0.727-0.671,1.878,0.053,2.572c0.726,0.696,1.877,0.672,2.573-0.054
				c0.696-0.724,0.672-1.876-0.053-2.573C86.647,29.596,85.494,29.621,84.8,30.346z"/>
			<path fill="#BF4F58" d="M81.186,28.771c0.364,1.388-0.467,2.811-1.854,3.176c-1.389,0.363-2.812-0.468-3.175-1.856
				c-0.366-1.387,0.465-2.81,1.853-3.173C79.398,26.553,80.821,27.381,81.186,28.771z"/>
			<path fill="#BF4F58" d="M96.972,24.4c0.28,0.964,1.29,1.521,2.253,1.24c0.968-0.279,1.522-1.289,1.242-2.255
				c-0.281-0.965-1.289-1.521-2.256-1.239C97.248,22.426,96.691,23.436,96.972,24.4z"/>
			<path fill="#BF4F58" d="M92.869,27.372c0.555,0.15,0.879,0.725,0.729,1.277c-0.151,0.555-0.726,0.88-1.277,0.729
				c-0.555-0.15-0.883-0.722-0.731-1.278C91.742,27.548,92.314,27.223,92.869,27.372z"/>
			<path fill="#BF4F58" d="M97.081,11.179c0.835,0.206,1.682-0.305,1.887-1.142s-0.306-1.682-1.142-1.888
				c-0.837-0.207-1.684,0.307-1.888,1.141C95.732,10.127,96.245,10.972,97.081,11.179z"/>
			<path fill="#BF4F58" d="M98.353,14.805c1.02-1.009,2.665-1.001,3.677,0.019c1.01,1.02,1.002,2.667-0.018,3.676
				c-1.021,1.009-2.667,1.003-3.677-0.016C97.322,17.461,97.333,15.814,98.353,14.805z"/>
			<path fill="#BF4F58" d="M86.486,3.139c0.597-0.621,0.576-1.609-0.044-2.205c-0.622-0.596-1.611-0.575-2.207,0.045
				c-0.596,0.622-0.576,1.61,0.047,2.206C84.902,3.782,85.891,3.761,86.486,3.139z"/>
			<path fill="#BF4F58" d="M91.884,4.532c-0.145-0.557,0.188-1.126,0.742-1.271c0.558-0.145,1.125,0.186,1.271,0.741
				c0.146,0.554-0.186,1.124-0.742,1.269C92.601,5.418,92.031,5.088,91.884,4.532z"/>
			<path fill="#BF4F58" d="M74.591,9.298c-0.281-0.966-1.29-1.522-2.256-1.24c-0.965,0.279-1.521,1.288-1.24,2.255
				c0.28,0.965,1.289,1.521,2.256,1.239C74.313,11.273,74.87,10.262,74.591,9.298z"/>
		</g>
	</g>
</g>
<g id="Layer_1_1_">
	<g>
		<path fill="#423E3D" d="M5.006,41.86c0-0.481,0.372-0.854,0.832-0.854c0.48,0,0.852,0.373,0.852,0.854v1.53
			c0.92-1.355,2.254-2.513,4.331-2.513c2.713,0,5.404,2.142,5.404,5.86v0.045c0,3.696-2.668,5.883-5.404,5.883
			c-2.099,0-3.455-1.138-4.331-2.406v4.924c0,0.48-0.35,0.852-0.831,0.852c-0.481,0-0.853-0.371-0.853-0.852V41.86z M14.697,46.803
			v-0.042c0-2.67-1.838-4.375-3.982-4.375c-2.1,0-4.09,1.771-4.09,4.353v0.045c0,2.623,1.99,4.375,4.09,4.375
			C12.903,51.158,14.697,49.537,14.697,46.803z"/>
		<path fill="#423E3D" d="M19.424,41.86c0-0.459,0.372-0.854,0.831-0.854c0.48,0,0.853,0.373,0.853,0.854v2.122
			c0.832-1.881,2.472-3.019,3.895-3.019c0.502,0,0.831,0.371,0.831,0.852c0,0.461-0.307,0.787-0.742,0.854
			c-2.19,0.263-3.983,1.903-3.983,5.163v3.85c0,0.459-0.349,0.854-0.831,0.854c-0.481,0-0.853-0.372-0.853-0.854V41.86z"/>
		<path fill="#423E3D" d="M26.773,46.825v-0.042c0-3.195,2.495-5.905,5.909-5.905c3.39,0,5.884,2.667,5.884,5.86v0.045
			c0,3.191-2.516,5.905-5.929,5.905C29.247,52.688,26.773,50.019,26.773,46.825z M36.837,46.825v-0.042
			c0-2.429-1.816-4.42-4.201-4.42c-2.449,0-4.134,1.991-4.134,4.375v0.045c0,2.428,1.793,4.396,4.18,4.396
			C35.13,51.179,36.837,49.211,36.837,46.825z"/>
		<path fill="#423E3D" d="M42.045,41.86c0-0.459,0.371-0.854,0.832-0.854c0.481,0,0.852,0.373,0.852,0.854v1.159
			c0.744-1.115,1.75-2.142,3.654-2.142c1.837,0,3.018,0.982,3.631,2.251c0.809-1.247,2.013-2.251,3.981-2.251
			c2.603,0,4.199,1.747,4.199,4.548v6.256c0,0.481-0.372,0.854-0.831,0.854c-0.482,0-0.854-0.372-0.854-0.854V45.82
			c0-2.188-1.092-3.413-2.93-3.413c-1.707,0-3.108,1.269-3.108,3.5v5.774c0,0.481-0.37,0.854-0.852,0.854
			c-0.459,0-0.832-0.372-0.832-0.854v-5.905c0-2.122-1.116-3.371-2.909-3.371c-1.795,0-3.151,1.49-3.151,3.566v5.71
			c0,0.481-0.35,0.854-0.831,0.854c-0.482,0-0.854-0.372-0.854-0.854V41.86H42.045z"/>
		<path fill="#423E3D" d="M68.015,52.688c-3.108,0-5.645-2.384-5.645-5.886v-0.042c0-3.26,2.297-5.886,5.426-5.886
			c3.345,0,5.25,2.734,5.25,5.73c0,0.459-0.372,0.787-0.788,0.787h-8.181c0.24,2.451,1.968,3.83,3.98,3.83
			c1.4,0,2.429-0.546,3.259-1.312c0.131-0.109,0.285-0.197,0.481-0.197c0.417,0,0.743,0.328,0.743,0.723
			c0,0.195-0.086,0.395-0.263,0.548C71.207,52.012,69.939,52.688,68.015,52.688z M71.36,46.148c-0.173-2.058-1.354-3.85-3.609-3.85
			c-1.968,0-3.455,1.639-3.673,3.85H71.36z"/>
		<path fill="#423E3D" d="M76.613,49.427v-6.824h-0.92c-0.392,0-0.743-0.348-0.743-0.742c0-0.417,0.351-0.743,0.743-0.743h0.92
			v-2.67c0-0.459,0.348-0.852,0.83-0.852c0.459,0,0.854,0.393,0.854,0.852v2.67h2.932c0.416,0,0.766,0.351,0.766,0.743
			c0,0.416-0.35,0.742-0.766,0.742h-2.932v6.608c0,1.378,0.766,1.881,1.904,1.881c0.59,0,0.896-0.155,1.027-0.155
			c0.395,0,0.721,0.33,0.721,0.723c0,0.309-0.195,0.548-0.48,0.659c-0.48,0.195-1.006,0.306-1.662,0.306
			C77.992,52.624,76.613,51.726,76.613,49.427z"/>
		<path fill="#423E3D" d="M84.576,41.86c0-0.459,0.373-0.854,0.83-0.854c0.482,0,0.854,0.373,0.854,0.854v9.821
			c0,0.481-0.35,0.854-0.83,0.854s-0.854-0.372-0.854-0.854V41.86z"/>
		<path fill="#423E3D" d="M100.307,51.682c0,0.459-0.35,0.854-0.832,0.854c-0.461,0-0.83-0.372-0.83-0.854v-1.224
			c-0.766,1.224-1.928,2.208-3.873,2.208c-2.734,0-4.332-1.836-4.332-4.528V41.86c0-0.481,0.35-0.854,0.83-0.854
			c0.459,0,0.855,0.373,0.855,0.854v5.863c0,2.1,1.135,3.41,3.127,3.41c1.926,0,3.393-1.419,3.393-3.541V41.86
			c0-0.481,0.346-0.854,0.83-0.854c0.459,0,0.832,0.373,0.832,0.854V51.682L100.307,51.682z"/>
		<path fill="#423E3D" d="M104.639,41.86c0-0.459,0.373-0.854,0.832-0.854c0.48,0,0.852,0.373,0.852,0.854v1.159
			c0.744-1.115,1.75-2.142,3.656-2.142c1.834,0,3.016,0.982,3.629,2.251c0.811-1.247,2.014-2.251,3.98-2.251
			c2.604,0,4.201,1.747,4.201,4.548v6.256c0,0.481-0.373,0.854-0.832,0.854c-0.48,0-0.854-0.372-0.854-0.854V45.82
			c0-2.188-1.092-3.413-2.932-3.413c-1.705,0-3.104,1.269-3.104,3.5v5.774c0,0.481-0.371,0.854-0.854,0.854
			c-0.461,0-0.832-0.372-0.832-0.854v-5.905c0-2.122-1.117-3.371-2.91-3.371s-3.15,1.49-3.15,3.566v5.71
			c0,0.481-0.352,0.854-0.832,0.854c-0.479,0-0.852-0.372-0.852-0.854V41.86L104.639,41.86z"/>
		<g>
			<path fill="#9D9D9C" d="M100.141,17.064l-0.484-0.489c-1.16,1.148-2.525,1.95-3.971,2.421c-0.617-0.556-1.297-1.045-2.041-1.454
				c-1.682-0.925-3.537-1.371-5.408-1.324c2.283-1.4,3.922-3.58,4.654-6.081c1.371-0.301,2.801-0.297,4.203,0.049l0.166-0.67
				c-1.393-0.343-2.811-0.379-4.18-0.128c0.346-1.6,0.328-3.306-0.119-5.004L92.295,4.56c0.445,1.701,0.432,3.409,0.037,4.995
				c-0.912,0.243-1.795,0.615-2.627,1.118c-1.529,0.927-2.748,2.225-3.584,3.755c-0.035-2.861-1.217-5.54-3.217-7.483
				c0.416-1.615,1.23-3.149,2.465-4.436l-0.498-0.477c-1.229,1.281-2.072,2.793-2.541,4.391c-1.154-0.969-2.537-1.712-4.098-2.139
				l-0.182,0.666c1.576,0.431,2.957,1.207,4.088,2.223c-0.582,2.696-0.111,5.569,1.391,7.969c-2.475-1.369-5.348-1.678-8.002-0.937
				c-1.193-1.183-2.077-2.652-2.556-4.31l-0.664,0.191c0.479,1.655,1.333,3.134,2.479,4.353c-1.43,0.515-2.776,1.345-3.935,2.492
				l0.486,0.489c1.167-1.157,2.544-1.964,4.001-2.434c0.628,0.576,1.327,1.082,2.095,1.502c1.604,0.882,3.365,1.331,5.146,1.331
				c0.088,0,0.178-0.007,0.268-0.009c-2.402,1.47-4.092,3.806-4.764,6.47c-1.641,0.458-3.375,0.492-5.076,0.074l-0.164,0.67
				c0.855,0.21,1.721,0.313,2.579,0.313c0.843,0,1.681-0.106,2.499-0.304c-0.264,1.484-0.217,3.053,0.193,4.614l0.668-0.176
				c-0.416-1.579-0.432-3.163-0.115-4.649c0.789-0.255,1.555-0.597,2.285-1.038c1.699-1.03,3.049-2.477,3.945-4.197
				c0.096,2.717,1.303,5.251,3.283,7.036c-0.373,1.771-1.219,3.465-2.562,4.865l0.498,0.479c1.346-1.402,2.229-3.078,2.664-4.842
				c1.002,0.77,2.166,1.361,3.461,1.714l0.18-0.665c-1.32-0.361-2.49-0.994-3.479-1.814c0.436-2.567-0.064-5.259-1.492-7.522
				c1.605,0.888,3.379,1.342,5.152,1.342c0.975,0,1.949-0.137,2.896-0.404c1.217,1.192,2.119,2.676,2.609,4.355l0.66-0.191
				c-0.486-1.677-1.354-3.175-2.527-4.403C97.662,19.024,98.994,18.201,100.141,17.064z M90.064,11.262
				c0.646-0.392,1.332-0.689,2.035-0.912c-0.936,2.753-3.064,5.042-5.963,6.128c-0.047,0.011-0.094,0.02-0.139,0.03
				C86.662,14.312,88.086,12.459,90.064,11.262z M82.729,7.748c2.09,2.217,3.105,5.34,2.557,8.536
				C83.082,13.925,82.215,10.749,82.729,7.748z M77.766,15.886c-0.586-0.322-1.131-0.696-1.631-1.115
				c2.975-0.691,6.188,0.005,8.676,2.096c-0.018,0.008-0.037,0.015-0.059,0.023C82.377,17.417,79.92,17.07,77.766,15.886z
				 M80.596,23.197c-0.555,0.334-1.133,0.612-1.727,0.832c0.873-2.912,3.061-5.352,6.088-6.48c0.006-0.001,0.016-0.003,0.023-0.005
				C84.26,19.909,82.727,21.905,80.596,23.197z M88.318,25.795c-2.064-2.055-3.104-5.03-2.605-8.071
				C87.801,19.962,88.674,22.935,88.318,25.795z M86.234,17.178c0.035-0.011,0.066-0.025,0.102-0.037
				c2.373-0.524,4.826-0.178,6.975,1.004c0.564,0.31,1.088,0.671,1.572,1.073C91.926,19.913,88.725,19.237,86.234,17.178z"/>
			<path fill="#BF4F58" d="M77.457,7.118c-1.381-0.378-2.195-1.805-1.818-3.185c0.379-1.379,1.805-2.194,3.184-1.817
				c1.383,0.378,2.195,1.804,1.818,3.185S78.838,7.495,77.457,7.118z"/>
			<path fill="#8B5B5A" d="M73.301,23.179c-0.836-0.204-1.677,0.306-1.883,1.141c-0.206,0.832,0.304,1.674,1.139,1.879
				c0.833,0.206,1.677-0.305,1.882-1.139C74.641,24.226,74.133,23.384,73.301,23.179z"/>
			<path fill="#AD4850" d="M71.823,17.915c-0.405,0.403-1.062,0.398-1.465-0.008c-0.403-0.406-0.399-1.062,0.007-1.465
				c0.408-0.404,1.063-0.399,1.466,0.007C72.233,16.856,72.23,17.512,71.823,17.915z"/>
			<path d="M84.561,30.474c-0.695,0.723-0.668,1.871,0.053,2.563c0.725,0.694,1.873,0.67,2.566-0.053s0.67-1.87-0.053-2.564
				C86.404,29.724,85.256,29.75,84.561,30.474z"/>
			<path fill="#5F3D3B" d="M80.957,28.903c0.363,1.383-0.465,2.803-1.85,3.165c-1.383,0.364-2.803-0.463-3.164-1.851
				c-0.365-1.383,0.463-2.801,1.848-3.163C79.176,26.69,80.594,27.518,80.957,28.903z"/>
			<path fill="#4A4A49" d="M96.697,24.545c0.277,0.961,1.285,1.515,2.244,1.235c0.965-0.278,1.52-1.285,1.24-2.248
				s-1.287-1.517-2.248-1.235C96.971,22.577,96.416,23.584,96.697,24.545z"/>
			<path fill="#353534" d="M92.605,27.507c0.553,0.15,0.877,0.724,0.729,1.275c-0.152,0.552-0.725,0.876-1.273,0.727
				c-0.555-0.15-0.881-0.721-0.73-1.273C91.482,27.683,92.051,27.36,92.605,27.507z"/>
			<path fill="#7A6F6D" d="M96.805,11.363c0.834,0.206,1.678-0.304,1.881-1.138c0.205-0.835-0.303-1.676-1.137-1.882
				s-1.68,0.307-1.881,1.138C95.461,10.314,95.973,11.157,96.805,11.363z"/>
			<path fill="#646363" d="M98.074,14.979c1.016-1.005,2.656-0.999,3.664,0.018c1.008,1.018,1,2.66-0.018,3.665
				c-1.016,1.007-2.66,1.002-3.664-0.016C97.047,17.626,97.057,15.984,98.074,14.979z"/>
			<path fill="#BC7A79" d="M86.242,3.347c0.596-0.619,0.574-1.604-0.043-2.198c-0.621-0.593-1.607-0.573-2.201,0.045
				c-0.594,0.62-0.572,1.606,0.047,2.199C84.664,3.988,85.65,3.968,86.242,3.347z"/>
			<path fill="#A28480" d="M91.625,4.736c-0.145-0.555,0.186-1.123,0.738-1.268c0.557-0.145,1.123,0.186,1.268,0.74
				c0.146,0.552-0.186,1.12-0.74,1.265C92.338,5.619,91.771,5.29,91.625,4.736z"/>
			<path fill="#D3033B" d="M74.382,9.487c-0.279-0.963-1.285-1.518-2.249-1.236c-0.961,0.278-1.516,1.285-1.237,2.248
				c0.281,0.962,1.285,1.516,2.25,1.236C74.107,11.458,74.663,10.449,74.382,9.487z"/>
		</g>
	</g>
</g>
</svg>
